<svg xmlns="http://www.w3.org/2000/svg" fill="none" viewBox="0 0 48 48" id="Ai-Science-Robot--Streamline-Ultimate" height="48" width="48">
  <desc>
    Ai Science Robot Streamline Icon: https://streamlinehq.com
  </desc>
  <path fill="#000000" fill-rule="evenodd" d="M36.453 6.19104V2.34376c0 -1.10458 0.8954 -2.00001 2 -2.00001 1.1044 0 2 0.89543 2 2.00001v3.84728h2.953c2.2092 0 4 1.79086 4 4v5.92666c0 2.20914 -1.7908 4.0001 -4 4.0001h-9.9024c-2.209 0 -4 -1.79096 -4 -4.0001V10.19104c0 -2.20914 1.791 -4 4 -4h2.9494Zm-1.336 9.64844c-0.8284 0 -1.5 -0.67156 -1.5 -1.5V11.96776c0 -0.82844 0.6716 -1.5 1.5 -1.5s1.5 0.67156 1.5 1.5v2.37172c0 0.82844 -0.6716 1.5 -1.5 1.5Zm5.1758 -1.5c0 0.82844 0.6716 1.5 1.5 1.5s1.5 -0.67156 1.5 -1.5V11.96776c0 -0.82844 -0.6716 -1.5 -1.5 -1.5s-1.5 0.67156 -1.5 1.5v2.37172ZM3.0942 13.24086C-0.0850484 16.42012 0.1088544 20.7256 1.79225 24.79c0.59731 1.4422 1.40307 2.9204 2.37753 4.411 -0.97038 1.4844 -1.77392 2.957 -2.370698 4.3944 -1.6875456 4.0646 -1.889963 8.3778 1.296418 11.564 3.17924 3.1794 7.48472 2.9854 11.54916 1.302 1.44176 -0.5972 2.91966 -1.4026 4.40984 -2.3768 1.4837 0.9698 2.9557 1.773 4.3925 2.3694 4.0646 1.6876 8.3776 1.89 11.564 -1.2964 3.1792 -3.1792 2.9854 -7.4848 1.302 -11.5492 -0.5972 -1.4414 -1.4024 -2.9192 -2.3764 -4.409 0.6994 -1.0698 1.3114 -2.1324 1.8218 -3.1788 0.484 -0.993 0.0716 -2.1902 -0.9214 -2.6742 -0.9928 -0.4842 -2.19 -0.0716 -2.6742 0.9212 -0.232 0.4762 -0.4918 0.9614 -0.7778 1.454 -1.2644 -1.5598 -2.6788 -3.113 -4.1982 -4.6324 -1.5268 -1.52664 -3.088 -2.94862 -4.6564 -4.21956 0.4934 -0.28622 0.979 -0.54616 1.4556 -0.77838 0.993 -0.48384 1.4056 -1.68102 0.9218 -2.67398 -0.4838 -0.99296 -1.681 -1.4057 -2.674 -0.92186 -1.0472 0.51026 -2.1104 1.1225 -3.181 1.8224 -1.4835 -0.97002 -2.95496 -1.77322 -4.39078 -2.37004 -4.06758 -1.69074 -8.38108 -1.89364 -11.56782 1.29308Zm12.4813 3.6286c-0.84154 -0.48858 -1.66004 -0.9002 -2.44878 -1.22806 -3.3747 -1.40272 -5.67272 -1.10348 -7.20408 0.42788 -1.52766 1.52766 -1.82998 3.8216 -0.43482 7.19012 0.32858 0.7934 0.7421 1.617 1.23372 2.4642 1.2653 -1.561 2.68004 -3.1144 4.19816 -4.6324l0.02422 -0.0242c1.52124 -1.52132 3.07404 -2.935 4.63158 -4.19754ZM6.72156 32.6784c-0.48874 0.8422 -0.90044 1.6614 -1.22824 2.4508 -1.39986 3.3718 -1.10112 5.6702 0.4306 7.2018 1.52764 1.5278 3.8216 1.83 7.19012 0.4348 0.7929 -0.3284 1.61608 -0.7416 2.46268 -1.2328 -1.56154 -1.2656 -3.11542 -2.681 -4.63408 -4.1996l-0.02422 -0.0242c-1.51886 -1.5188 -2.93284 -3.0714 -4.19686 -4.6308Zm12.33286 6.5028c-1.72578 -1.3208 -3.50338 -2.8962 -5.28336 -4.6762l-0.02422 -0.0242c-1.78042 -1.7804 -3.35432 -3.5566 -4.67342 -5.2798 1.32052 -1.7252 2.8954 -3.5022 4.6747 -5.2814l0.02422 -0.0242c1.77756 -1.7776 3.55404 -3.3526 5.2804 -4.67398 1.73186 1.32558 3.51686 2.90758 5.30566 4.69638 1.781 1.781 3.3554 3.5578 4.6748 5.2816 -1.328 1.7354 -2.9116 3.5212 -4.6978 5.3074 -1.7808 1.7808 -3.5574 3.3552 -5.28098 4.6744Zm3.47778 2.3516c0.8412 0.4882 1.6598 0.8994 2.4486 1.227 3.3716 1.3998 5.67 1.1012 7.2018 -0.4306 1.5276 -1.5276 1.83 -3.8216 0.4348 -7.1902 -0.3284 -0.7926 -0.7414 -1.6156 -1.2324 -2.4618 -1.2698 1.5668 -2.6918 3.1286 -4.2212 4.658 -1.5192 1.5192 -3.072 2.9334 -4.6316 4.1976Z" clip-rule="evenodd" stroke-width="2"></path>
</svg>