<svg xmlns="http://www.w3.org/2000/svg" fill="none" viewBox="0 0 48 48" id="Holi-Color-1--Streamline-Ultimate" height="48" width="48">
  <desc>
    Holi Color 1 Streamline Icon: https://streamlinehq.com
  </desc>
  <path fill="#000000" fill-rule="evenodd" d="M46.5 5.5a4 4 0 1 1 -8 0 4 4 0 0 1 8 0Zm-23.8 36.646c-0.8 1.8 -2.4 3.4 -4.4 4 -2 0.6 -4 0.4 -5.8 -1 -2 -1 -3.2 -2.8 -3.6 -5 -0.4 -2.2 0.2 -4.4 1.6 -6 0.2 -0.4 0.2 -1 0 -1.4 -0.2 -0.4 -0.6 -0.6 -1.2 -0.6l-2.6 0.2c-1.2 0 -2.6 -0.4 -3.6 -1.2 -1 -0.8 -1.6 -2 -1.6 -3.4s0.6 -2.8 1.6 -3.6c1 -0.8 2.4 -1.2 3.8 -1l5.2 0.6c0.4 0 1 -0.2 1.2 -0.6 0.2 -0.4 0.2 -1 0 -1.4l-3.6 -5.6c-1.6 -2.2 -2.4 -5 -2.2 -7.4 0.2 -2.6 1.4 -4.6 3.2 -5.6 1.8 -1 4.2 -1 6.6 0.2 2.2 1.2 4.2 3.4 5.2 6l1.8 4c0.2 0.4 0.6 0.6 1 0.6s0.8 -0.2 1 -0.6c0.4 -1 1.4 -2 2.6 -2.4 1.2 -0.4 2.6 -0.2 3.6 0.4 1.2 0.6 2 1.8 2.2 3 0.2 1.2 -0.2 2.6 -1 3.6 -0.2 0.4 -0.2 0.8 0 1.2 0.2 0.4 0.6 0.6 1 0.6l2.6 -0.2c2.2 -0.2 4.2 0.4 5.8 1.8 1.6 1.4 2.4 3.4 2.4 5.4 0 2.2 -1 4.2 -2.6 5.6 -1.6 1.4 -3.8 2 -6 1.6l-2 -0.2c-0.4 0 -0.8 0.2 -1 0.6 -0.2 0.4 -0.2 0.8 0 1.2l2 2.8c1 1 1.2 2.6 1 4 -0.2 1.4 -1.2 2.6 -2.4 3.4 -1.4 0.8 -3 1 -4.4 0.4 -1.4 -0.4 -2.4 -1.6 -3 -3l-1.4 -3c-0.2 -0.4 -0.6 -0.6 -1 -0.6s-0.8 0.2 -1 0.6l-1 2ZM3.8 15.15a1.876 1.876 0 1 1 0 3.75 1.876 1.876 0 0 1 0 -3.75Zm1.674 26.776a1.874 1.874 0 1 0 -3.748 0 1.874 1.874 0 0 0 3.748 0Z" clip-rule="evenodd" stroke-width="2"></path>
</svg>