<svg xmlns="http://www.w3.org/2000/svg" viewBox="0 0 48 48" id="Smiley-Smile--Streamline-Ultimate" height="48" width="48">
  <desc>
    Smiley Smile Streamline Icon: https://streamlinehq.com
  </desc>
  <path d="M24 0a24 24 0 1 0 24 24A24 24 0 0 0 24 0ZM15 14a6.34 6.34 0 0 1 5.86 4.28 2 2 0 0 1 -1.14 2.58 1.84 1.84 0 0 1 -0.72 0.14 2 2 0 0 1 -1.86 -1.28A2.44 2.44 0 0 0 15 18a2.44 2.44 0 0 0 -2.14 1.72 2 2 0 1 1 -3.72 -1.44A6.34 6.34 0 0 1 15 14Zm0 16a2 2 0 0 1 2.78 0.58 7.52 7.52 0 0 0 12.64 0 2 2 0 1 1 3.36 2.2 11.56 11.56 0 0 1 -19.36 0A2 2 0 0 1 14.9 30Zm21.14 -10.28A2.44 2.44 0 0 0 34 18a2.44 2.44 0 0 0 -2.14 1.72 2 2 0 0 1 -3.72 -1.44 6.16 6.16 0 0 1 11.72 0 2 2 0 0 1 -1.14 2.58 1.84 1.84 0 0 1 -0.72 0.14 2 2 0 0 1 -1.86 -1.28Z" fill="#000000" stroke-width="2"></path>
</svg>